<?xml version="1.0" standalone="no"?>
<svg xmlns:xlink="http://www.w3.org/1999/xlink" id="wave" style="transform:rotate(0deg); transition: 0.3s" viewBox="0 0 1440 490" version="1.1" xmlns="http://www.w3.org/2000/svg"><defs><linearGradient id="sw-gradient-0" x1="0" x2="0" y1="1" y2="0"><stop stop-color="rgba(255, 255, 255, 1)" offset="0%"/><stop stop-color="rgba(104.204, 212.794, 234.936, 1)" offset="100%"/></linearGradient></defs><path style="transform:translate(0, 0px); opacity:1" fill="url(#sw-gradient-0)" d="M0,98L240,155.2C480,212,960,327,1440,367.5C1920,408,2400,376,2880,359.3C3360,343,3840,343,4320,310.3C4800,278,5280,212,5760,220.5C6240,229,6720,310,7200,359.3C7680,408,8160,425,8640,400.2C9120,376,9600,310,10080,253.2C10560,196,11040,147,11520,179.7C12000,212,12480,327,12960,343C13440,359,13920,278,14400,212.3C14880,147,15360,98,15840,65.3C16320,33,16800,16,17280,65.3C17760,114,18240,229,18720,294C19200,359,19680,376,20160,351.2C20640,327,21120,261,21600,253.2C22080,245,22560,294,23040,326.7C23520,359,24000,376,24480,326.7C24960,278,25440,163,25920,163.3C26400,163,26880,278,27360,302.2C27840,327,28320,261,28800,220.5C29280,180,29760,163,30240,179.7C30720,196,31200,245,31680,228.7C32160,212,32640,131,33120,122.5C33600,114,34080,180,34320,212.3L34560,245L34560,490L34320,490C34080,490,33600,490,33120,490C32640,490,32160,490,31680,490C31200,490,30720,490,30240,490C29760,490,29280,490,28800,490C28320,490,27840,490,27360,490C26880,490,26400,490,25920,490C25440,490,24960,490,24480,490C24000,490,23520,490,23040,490C22560,490,22080,490,21600,490C21120,490,20640,490,20160,490C19680,490,19200,490,18720,490C18240,490,17760,490,17280,490C16800,490,16320,490,15840,490C15360,490,14880,490,14400,490C13920,490,13440,490,12960,490C12480,490,12000,490,11520,490C11040,490,10560,490,10080,490C9600,490,9120,490,8640,490C8160,490,7680,490,7200,490C6720,490,6240,490,5760,490C5280,490,4800,490,4320,490C3840,490,3360,490,2880,490C2400,490,1920,490,1440,490C960,490,480,490,240,490L0,490Z"/></svg>